<svg xmlns="http://www.w3.org/2000/svg" version="1.1" xmlns:xlink="http://www.w3.org/1999/xlink" xmlns:svgjs="http://svgjs.dev/svgjs" width="1000" height="118" viewBox="0 0 1000 118"><g transform="matrix(1,0,0,1,-0.6060522764296934,-0.18628532634426875)"><svg viewBox="0 0 396 47" data-background-color="#ffffff" preserveAspectRatio="xMidYMid meet" height="118" width="1000" xmlns="http://www.w3.org/2000/svg" xmlns:xlink="http://www.w3.org/1999/xlink"><g id="tight-bounds" transform="matrix(1,0,0,1,0.23999670146616836,0.07419839269644513)"><svg viewBox="0 0 395.52 46.85160321460709" height="46.85160321460709" width="395.52"><g><svg viewBox="0 0 474.6041823654283 56.219576345514945" height="46.85160321460709" width="395.52"><g><rect width="3.6685523975697003" height="48.81584053156145" x="65.8120896600846" y="3.701867906976748" fill="#ff4136" opacity="1" stroke-width="0" stroke="transparent" fill-opacity="1" class="rect-o-0" data-fill-palette-color="primary" rx="1%" id="o-0" data-palette-color="#ff4136"></rect></g><g transform="matrix(1,0,0,1,79.08418236542838,7.769854617940201)"><svg viewBox="0 0 395.5199999999999 40.67986710963454" height="40.67986710963454" width="395.5199999999999"><g><svg viewBox="0 0 395.5199999999999 40.67986710963454" height="40.67986710963454" width="395.5199999999999"><g><svg viewBox="0 0 395.5199999999999 40.67986710963454" height="40.67986710963454" width="395.5199999999999"><g transform="matrix(1,0,0,1,0,0)"><svg width="395.5199999999999" viewBox="1.9000000953674316 -36.150001525878906 361.17999267578125 37.150001525878906" height="40.67986710963454" data-palette-color="#ff4136"><path d="M18.5 1Q14.2 1 10.48 0.05 6.75-0.9 5.23-1.85 3.7-2.8 3.2-3.2L3.2-3.2Q1.9-4.25 1.9-6.1L1.9-6.1Q1.9-7.55 2.25-8.85L2.25-8.85Q2.9-11.3 4.6-11.3L4.6-11.3Q5.15-11.25 8.13-10.15 11.1-9.05 12.8-9.05L12.8-9.05Q15.35-9.05 15.35-11.05L15.35-11.05Q15.35-12.25 14.1-13.28 12.85-14.3 11.08-15.25 9.3-16.2 7.5-17.43 5.7-18.65 4.45-20.83 3.2-23 3.2-25.9L3.2-25.9Q3.2-30.7 7.9-33.43 12.6-36.15 20.05-36.15 27.5-36.15 31.88-34.63 36.25-33.1 36.25-30.4L36.25-30.4Q36.25-28.45 35.35-26.98 34.45-25.5 33.45-25.5L33.45-25.5Q33.1-25.5 31.13-26.28 29.15-27.05 27.55-27.05L27.55-27.05Q24.4-27.05 24.4-24.6L24.4-24.6Q24.4-23.4 25.9-22.4 27.4-21.4 29.53-20.48 31.65-19.55 33.8-18.4 35.95-17.25 37.45-15.25 38.95-13.25 38.95-10.4 38.95-7.55 37.13-5.2 35.3-2.85 32.3-1.55L32.3-1.55Q26.35 1 18.5 1L18.5 1ZM47.35-35L47.35-35 60.75-35Q62.85-35 63.52-33.95 64.2-32.9 64.42-29.63 64.65-26.35 64.65-16.93 64.65-7.5 64.25-3.1L64.25-3.1Q64.1-1.95 63.22-1.05 62.35-0.15 60.9-0.05L60.9-0.05Q58.05 0.15 54.3 0.15 50.55 0.15 47.2-0.05L47.2-0.05Q45.75-0.15 44.87-1.05 44-1.95 43.85-3.1L43.85-3.1Q43.45-7.5 43.45-16.93 43.45-26.35 43.67-29.63 43.9-32.9 44.57-33.95 45.25-35 47.35-35ZM99.1-3.05L99.1-3.05Q99.05-1.95 98.15-1.03 97.25-0.1 95.75 0L95.75 0Q92.9 0.2 88.9 0.2 84.9 0.2 81.55 0L81.55 0Q80.05-0.1 79.15-1.03 78.25-1.95 78.2-3.05L78.2-3.05Q78.05-10.65 78.05-16.03 78.05-21.4 78.1-23.9L78.1-23.9Q78.1-25.8 76.4-25.8L76.4-25.8 71.9-25.8Q70.85-25.8 70.2-26.3 69.55-26.8 69.47-28.05 69.4-29.3 69.4-30.65 69.4-32 69.47-32.98 69.55-33.95 70.27-34.48 71-35 71.85-35L71.85-35Q78.35-35.1 89.45-35.1 100.55-35.1 105.35-35L105.35-35Q106.2-34.95 106.92-34.45 107.65-33.95 107.72-32.98 107.8-32 107.8-30.7 107.8-29.4 107.75-28.2L107.75-28.2Q107.6-25.95 105.3-25.95L105.3-25.95 100.8-25.95Q99.1-25.95 99.1-24.2L99.1-24.2Q99.25-17.9 99.25-12.8 99.25-7.7 99.1-3.05ZM160.74-3.15L160.74-3.15Q160.64-2 159.77-1.1 158.89-0.2 157.39-0.1L157.39-0.1Q153.29 0.15 150.64 0.15 147.99 0.15 144.39-0.1L144.39-0.1Q141.64-0.35 141.49-2.5L141.49-2.5Q141.44-3.35 141.39-4.73 141.34-6.1 141.27-7.15 141.19-8.2 140.72-8.8 140.24-9.4 139.04-9.4L139.04-9.4 135.29-9.4Q134.09-9.4 133.62-8.8 133.14-8.2 133.07-7.15 132.99-6.1 132.94-4.73 132.89-3.35 132.84-2.5L132.84-2.5Q132.69-0.35 129.94-0.1L129.94-0.1Q126.34 0.15 123.37 0.15 120.39 0.15 116.29-0.1L116.29-0.1Q114.79-0.2 113.92-1.1 113.04-2 112.94-3.15L112.94-3.15Q112.54-7.55 112.54-17.3 112.54-27.05 112.74-29.98 112.94-32.9 113.64-33.98 114.34-35.05 116.44-35.05L116.44-35.05 128.64-35.05Q130.39-35.05 131.62-33.85 132.84-32.65 132.84-30.75L132.84-30.75 132.84-20.25Q132.84-18.45 134.39-18.45L134.39-18.45 139.94-18.45Q141.49-18.45 141.49-20.25L141.49-20.25 141.49-30.75Q141.49-32.65 142.72-33.85 143.94-35.05 145.69-35.05L145.69-35.05 157.24-35.05Q159.34-35.05 160.04-33.98 160.74-32.9 160.94-29.98 161.14-27.05 161.14-17.3 161.14-7.55 160.74-3.15ZM199.24-32.65L199.24-32.65 215.59-5Q216.59-3.35 216.59-2.23 216.59-1.1 215.69-0.55 214.79 0 213.59 0L213.59 0 197.49 0Q195.04 0 194.34-0.9L194.34-0.9Q194.14-1.2 193.79-1.95L193.79-1.95 192.34-5.05Q191.69-6.5 189.29-6.7L189.29-6.7 179.84-6.7Q178.79-6.7 178.24-6.5 177.69-6.3 177.34-5.6L177.34-5.6 175.39-1.55Q174.89-0.65 174.29-0.33 173.69 0 172.54 0L172.54 0 168.04 0Q166.09 0 165.94-1.4L165.94-1.4Q165.89-1.6 165.89-1.8L165.89-1.8Q165.89-2.95 166.64-4L166.64-4 182.29-31.6Q184.54-35.5 189.59-35.5L189.59-35.5 193.59-35.5Q197.59-35.5 199.24-32.65ZM183.04-19.85L183.04-19.85 180.74-15.3Q180.54-14.85 180.54-14.5L180.54-14.5Q180.54-13.2 181.79-13.2L181.79-13.2 186.34-13.2Q187.39-13.2 187.79-13.73 188.19-14.25 188.19-14.65 188.19-15.05 188.04-15.45L188.04-15.45 186.14-19.75Q185.54-21.05 184.59-21.05 183.64-21.05 183.04-19.85ZM255.24-35L255.24-35 260.59-35Q262.29-35 262.96-34.45 263.64-33.9 263.69-32.2L263.69-32.2Q263.99-24.6 263.99-15.85 263.99-7.1 263.64-3.05L263.64-3.05Q263.54-1.9 262.76-0.95 261.99 0 260.74 0L260.74 0 252.39 0Q250.64 0 248.54-1.25L248.54-1.25Q236.94-8.1 233.94-9.6L233.94-9.6Q233.34-9.85 232.96-9.43 232.59-9 232.59-7.85L232.59-7.85 232.59-2.3Q232.59-1.35 231.89-0.8L231.89-0.8Q230.84 0.05 226.49 0.05L226.49 0.05Q225.29 0.05 224.14-0.03 222.99-0.1 222.26-1.05 221.54-2 221.49-3.1L221.49-3.1Q221.34-9.1 221.34-18.18 221.34-27.25 221.39-30 221.44-32.75 222.04-33.88 222.64-35 224.34-35L224.34-35 229.84-35Q231.54-35 233.34-34.05L233.34-34.05Q248.84-26 251.44-24.7L251.44-24.7Q252.29-24.3 252.79-24.6 253.29-24.9 253.29-25.7L253.29-25.7 253.29-32.7Q253.29-33.7 253.81-34.35 254.34-35 255.24-35ZM298.14-26.9L298.14-26.9Q293.64-26.9 291.81-24.58 289.99-22.25 289.99-17.2L289.99-17.2Q289.99-9.25 294.64-9.25L294.64-9.25Q295.59-9.25 295.89-9.3L295.89-9.3Q295.29-9.3 294.91-11.4 294.54-13.5 294.54-15.8 294.54-18.1 295.79-18.78 297.04-19.45 299.26-19.45 301.49-19.45 302.36-19.43 303.24-19.4 304.36-19.23 305.49-19.05 306.09-18.7L306.09-18.7Q307.49-17.9 307.49-16.3L307.49-16.3 307.49-9Q307.49-5.1 306.09-2.78 304.69-0.45 300.84-0.05L300.84-0.05Q295.44 0.5 284.34 0.5L284.34 0.5Q279.89 0.5 276.71-0.9 273.54-2.3 271.79-4.8L271.79-4.8Q268.59-9.45 268.59-16.63 268.59-23.8 273.19-29.4 277.79-35 285.44-35.4L285.44-35.4Q290.69-35.7 293.04-35.7L293.04-35.7Q301.59-35.7 305.19-34.65L305.19-34.65Q307.64-33.95 307.64-30.7L307.64-30.7Q307.64-26.35 305.09-26.35L305.09-26.35Q304.29-26.4 301.89-26.65 299.49-26.9 298.14-26.9ZM345.73-32.65L345.73-32.65 362.08-5Q363.08-3.35 363.08-2.23 363.08-1.1 362.18-0.55 361.28 0 360.08 0L360.08 0 343.98 0Q341.53 0 340.83-0.9L340.83-0.9Q340.63-1.2 340.28-1.95L340.28-1.95 338.83-5.05Q338.18-6.5 335.78-6.7L335.78-6.7 326.33-6.7Q325.28-6.7 324.73-6.5 324.18-6.3 323.83-5.6L323.83-5.6 321.88-1.55Q321.38-0.65 320.78-0.33 320.18 0 319.03 0L319.03 0 314.53 0Q312.58 0 312.43-1.4L312.43-1.4Q312.38-1.6 312.38-1.8L312.38-1.8Q312.38-2.95 313.13-4L313.13-4 328.78-31.6Q331.03-35.5 336.08-35.5L336.08-35.5 340.08-35.5Q344.08-35.5 345.73-32.65ZM329.53-19.85L329.53-19.85 327.23-15.3Q327.03-14.85 327.03-14.5L327.03-14.5Q327.03-13.2 328.28-13.2L328.28-13.2 332.83-13.2Q333.88-13.2 334.28-13.73 334.68-14.25 334.68-14.65 334.68-15.05 334.53-15.45L334.53-15.45 332.63-19.75Q332.03-21.05 331.08-21.05 330.13-21.05 329.53-19.85Z" opacity="1" transform="matrix(1,0,0,1,0,0)" fill="#ff4136" class="undefined-text-0" data-fill-palette-color="primary" id="text-0"></path></svg></g></svg></g></svg></g></svg></g><g><svg viewBox="0 0 56.208549352310506 56.219576345514945" height="56.219576345514945" width="56.208549352310506"><g><svg xmlns="http://www.w3.org/2000/svg" xmlns:xlink="http://www.w3.org/1999/xlink" version="1.1" x="0" y="0" viewBox="2 2 507.9003601074219 508" enable-background="new 0 0 512 512" xml:space="preserve" height="56.219576345514945" width="56.208549352310506" class="icon-icon-0" data-fill-palette-color="accent" id="icon-0"><g fill="#ff4136" data-fill-palette-color="accent"><path d="M467.7 2H65.5c-3.7 0-7.3 1.5-10 4.1L6.1 55.5C3.5 58.2 2 61.8 2 65.5v402.2C2 491 21 510 44.3 510h423.3c23.3 0 42.3-19 42.3-42.3V44.3C510 21 491 2 467.7 2zM122.8 30.2h278.3v119.6H122.8V30.2zM401.1 481.8H122.8V292.6h278.3V481.8zM481.8 467.7c0 7.8-6.3 14.1-14.1 14.1h-38.4V278.5c0-7.8-6.3-14.1-14.1-14.1H108.7c-7.8 0-14.1 6.3-14.1 14.1v203.3H44.3c-7.8 0-14.1-6.3-14.1-14.1V71.3l41.1-41.1h23.3v133.7c0 7.8 6.3 14.1 14.1 14.1h306.5c7.8 0 14.1-6.3 14.1-14.1V30.2h38.4c7.8 0 14.1 6.3 14.1 14.1V467.7z" fill="#ff4136" data-fill-palette-color="accent"></path><path d="M351.6 42.7c-7.8 0-14.1 6.3-14.1 14.1v46.1c0 7.8 6.3 14.1 14.1 14.1 7.8 0 14.1-6.3 14.1-14.1V56.8C365.7 49 359.4 42.7 351.6 42.7z" fill="#ff4136" data-fill-palette-color="accent"></path><path d="M185.3 367.1h153.2c7.8 0 14.1-6.3 14.1-14.1 0-7.8-6.3-14.1-14.1-14.1H185.3c-7.8 0-14.1 6.3-14.1 14.1C171.2 360.7 177.5 367.1 185.3 367.1z" fill="#ff4136" data-fill-palette-color="accent"></path><path d="M185.3 435.5h153.2c7.8 0 14.1-6.3 14.1-14.1 0-7.8-6.3-14.1-14.1-14.1H185.3c-7.8 0-14.1 6.3-14.1 14.1C171.2 429.2 177.5 435.5 185.3 435.5z" fill="#ff4136" data-fill-palette-color="accent"></path></g></svg></g></svg></g></svg></g><defs></defs></svg><rect width="395.52" height="46.85160321460709" fill="none" stroke="none" visibility="hidden"></rect></g></svg></g></svg>